<svg width="16" height="14" viewBox="0 0 16 14" fill="none" xmlns="http://www.w3.org/2000/svg">
<path d="M8.00596 4.30892C7.95636 4.31354 7.93427 4.3736 7.96907 4.40925L10.153 6.64657C10.1878 6.6823 10.2486 6.66065 10.253 6.61092C10.253 5.34097 9.24558 4.30892 8.00596 4.30892Z" fill="#677294"/>
<path d="M8.00591 2.77436C10.0732 2.77436 11.751 4.4932 11.751 6.61104C11.751 6.66311 11.7499 6.71492 11.7478 6.76647C11.7157 7.54422 11.8342 8.36903 12.3779 8.92606C13.1082 9.67427 14.3152 9.73911 14.9542 8.91154C15.2248 8.56114 15.4707 8.18978 15.6893 7.80026C16.1036 7.06208 16.1035 6.15997 15.6894 5.42169C14.1595 2.69441 11.2962 0.856037 8.00594 0.856037C7.51973 0.856037 7.04318 0.897277 6.57891 0.975934C5.83067 1.1027 5.61987 2.0051 6.1506 2.54755C6.44637 2.84985 6.8925 2.93026 7.3069 2.84584C7.53319 2.79974 7.7668 2.77436 8.00591 2.77436Z" fill="#677294"/>
<path d="M0.981651 0.205981C0.722528 0.471443 0.722528 0.895159 0.981651 1.16062L2.22347 2.43282C2.40604 2.61986 2.38678 2.92295 2.19187 3.09711C1.43312 3.77507 0.786672 4.58252 0.288249 5.48794C-0.0964312 6.18674 -0.0957632 7.035 0.288351 7.73411C1.80682 10.4978 4.69231 12.366 8.00585 12.366C9.00648 12.366 9.96815 12.195 10.8645 11.88C11.1243 11.7887 11.4163 11.8466 11.6086 12.0437L13.3051 13.7846C13.5721 14.0587 14.0124 14.0593 14.2803 13.786C14.5397 13.5213 14.5401 13.0978 14.2813 12.8326L1.95971 0.206049C1.69159 -0.0687078 1.24981 -0.0687385 0.981651 0.205981ZM4.30039 6.07229C4.38605 5.49138 5.09165 5.36732 5.50181 5.78752C5.69769 5.98819 5.76775 6.27241 5.75966 6.55272C5.7591 6.57204 5.75882 6.59145 5.75882 6.61095C5.75882 7.8809 6.76622 8.91296 8.00585 8.91296C8.00954 8.91296 8.01324 8.91295 8.01693 8.91292C8.31556 8.91114 8.6195 8.9853 8.8281 9.199C9.2357 9.61657 9.1132 10.3161 8.53668 10.4063C8.36358 10.4333 8.18646 10.4476 8.00585 10.4476C5.93858 10.4476 4.26079 8.7288 4.26079 6.61095C4.26079 6.42775 4.27447 6.24806 4.30039 6.07229Z" fill="#677294"/>
</svg>
