<svg width="36" height="36" viewBox="0 0 36 36" fill="none" xmlns="http://www.w3.org/2000/svg">
<path d="M18 33C9.71572 33 3 26.2842 3 18C3 9.71572 9.71572 3 18 3C26.2842 3 33 9.71572 33 18C33 26.2842 26.2842 33 18 33ZM18 30C24.6275 30 30 24.6275 30 18C30 11.3726 24.6275 6 18 6C11.3726 6 6 11.3726 6 18C6 24.6275 11.3726 30 18 30ZM12 19.5H24C24 22.8137 21.3137 25.5 18 25.5C14.6863 25.5 12 22.8137 12 19.5ZM12 16.5C10.7574 16.5 9.75 15.4926 9.75 14.25C9.75 13.0074 10.7574 12 12 12C13.2426 12 14.25 13.0074 14.25 14.25C14.25 15.4926 13.2426 16.5 12 16.5ZM24 16.5C22.7574 16.5 21.75 15.4926 21.75 14.25C21.75 13.0074 22.7574 12 24 12C25.2426 12 26.25 13.0074 26.25 14.25C26.25 15.4926 25.2426 16.5 24 16.5Z" fill="#92BDF6"/>
</svg>
